<svg xmlns="http://www.w3.org/2000/svg" viewBox="0 0 800 560" aria-hidden="true"><defs><filter id="soft" x="-40%" y="-40%" width="180%" height="180%"><feDropShadow dx="0" dy="2.5" stdDeviation="3.5" flood-color="#2f4870" flood-opacity="0.15"/></filter><linearGradient id="cardGrad" x1="0" y1="0" x2="0" y2="1"><stop offset="0" stop-color="#ffffff"/><stop offset="1" stop-color="#f6f3ec"/></linearGradient></defs><rect x="495.0" y="37.0" width="130" height="46" rx="12" fill="url(#cardGrad)" stroke="#8a5f39" stroke-width="1.8" filter="url(#soft)"/><line x1="560.0" y1="83.0" x2="560.0" y2="130.0" stroke="#8a5f39" stroke-width="1.8" stroke-linecap="round"/><path d="M625.0,160.0 L625.0,154.0 Q625.0,140.0 639.0,140.0 L686.0,140.0 Q700.0,140.0 700.0,126.0 L700.0,120.0" fill="none" stroke="#cdc7bb" stroke-width="1.8" stroke-linecap="round" stroke-dasharray="1 6"/><circle cx="700.0" cy="120.0" r="3" fill="#cdc7bb"/><ellipse cx="700.0" cy="120.0" rx="52.5" ry="20.0" fill="#f5e7e5" stroke="#c98f89" stroke-width="1.8" filter="url(#soft)"/><polygon points="560.0,130.0 557.7,124.5 562.3,124.5" fill="#8a5f39"/><polygon points="560.0,127.0 625.0,160.0 560.0,193.0 495.0,160.0" fill="url(#cardGrad)" stroke="#8a5f39" stroke-width="1.8" stroke-linejoin="round" filter="url(#soft)"/><circle cx="625.0" cy="160.0" r="3" fill="#cdc7bb"/><line x1="560.0" y1="193.0" x2="560.0" y2="250.0" stroke="#8a5f39" stroke-width="1.8" stroke-linecap="round"/><polygon points="560.0,250.0 557.7,244.5 562.3,244.5" fill="#8a5f39"/><rect x="490.0" y="257.0" width="140" height="46" rx="12" fill="url(#cardGrad)" stroke="#8a5f39" stroke-width="1.8" filter="url(#soft)"/><path d="M490.0,280.0 L490.0,291.0 Q490.0,305.0 476.0,305.0 L444.0,305.0 Q430.0,305.0 430.0,319.0 L430.0,330.0" fill="none" stroke="#cdc7bb" stroke-width="1.8" stroke-linecap="round" stroke-dasharray="1 6"/><circle cx="490.0" cy="280.0" r="3" fill="#cdc7bb"/><line x1="560.0" y1="303.0" x2="560.0" y2="360.0" stroke="#8a5f39" stroke-width="1.8" stroke-linecap="round"/><circle cx="430.0" cy="330.0" r="3" fill="#cdc7bb"/><ellipse cx="430.0" cy="330.0" rx="52.5" ry="20.0" fill="#f5e7e5" stroke="#c98f89" stroke-width="1.8" filter="url(#soft)"/><polygon points="560.0,360.0 557.7,354.5 562.3,354.5" fill="#8a5f39"/><polygon points="560.0,357.0 625.0,390.0 560.0,423.0 495.0,390.0" fill="url(#cardGrad)" stroke="#8a5f39" stroke-width="1.8" stroke-linejoin="round" filter="url(#soft)"/><path d="M625.0,390.0 L625.0,401.0 Q625.0,415.0 639.0,415.0 L686.0,415.0 Q700.0,415.0 700.0,429.0 L700.0,440.0" fill="none" stroke="#8a5f39" stroke-width="1.8" stroke-linecap="round"/><circle cx="625.0" cy="390.0" r="3" fill="#8a5f39"/><path d="M495.0,390.0 L495.0,411.0 Q495.0,425.0 481.0,425.0 L474.0,425.0 Q460.0,425.0 460.0,439.0 L460.0,460.0" fill="none" stroke="#cdc7bb" stroke-width="1.8" stroke-linecap="round" stroke-dasharray="1 6"/><circle cx="495.0" cy="390.0" r="3" fill="#cdc7bb"/><polygon points="700.0,440.0 697.7,434.5 702.3,434.5" fill="#8a5f39"/><circle cx="460.0" cy="460.0" r="3" fill="#cdc7bb"/><ellipse cx="460.0" cy="460.0" rx="50.0" ry="19.0" fill="#f5e7e5" stroke="#c98f89" stroke-width="1.8" filter="url(#soft)"/><rect x="640.0" y="448.0" width="120" height="44" rx="12" fill="url(#cardGrad)" stroke="#8a5f39" stroke-width="1.8" filter="url(#soft)"/></svg>