<svg xmlns="http://www.w3.org/2000/svg" viewBox="0 0 800 520" aria-hidden="true"><style>@keyframes fl{0%,100%{transform:translateY(0)}50%{transform:translateY(-6px)}}.f1{animation:fl 6s ease-in-out infinite}.f2{animation:fl 7.5s ease-in-out infinite -2s}.f3{animation:fl 9s ease-in-out infinite -4s}@media (prefers-reduced-motion: reduce){.f1,.f2,.f3{animation:none}}</style><g stroke="#e3dfd6" stroke-width="0.8"><line x1="560.0" y1="300.0" x2="317.5" y2="440.0"/><line x1="594.6" y1="320.0" x2="352.2" y2="460.0"/><line x1="629.3" y1="340.0" x2="386.8" y2="480.0"/><line x1="663.9" y1="360.0" x2="421.4" y2="500.0"/><line x1="698.6" y1="380.0" x2="456.1" y2="520.0"/><line x1="733.2" y1="400.0" x2="490.7" y2="540.0"/><line x1="767.8" y1="420.0" x2="525.4" y2="560.0"/><line x1="802.5" y1="440.0" x2="560.0" y2="580.0"/><line x1="837.1" y1="460.0" x2="594.6" y2="600.0"/><line x1="871.8" y1="480.0" x2="629.3" y2="620.0"/><line x1="906.4" y1="500.0" x2="663.9" y2="640.0"/><line x1="941.1" y1="520.0" x2="698.6" y2="660.0"/><line x1="975.7" y1="540.0" x2="733.2" y2="680.0"/><line x1="560.0" y1="300.0" x2="975.7" y2="540.0"/><line x1="525.4" y1="320.0" x2="941.1" y2="560.0"/><line x1="490.7" y1="340.0" x2="906.4" y2="580.0"/><line x1="456.1" y1="360.0" x2="871.8" y2="600.0"/><line x1="421.4" y1="380.0" x2="837.1" y2="620.0"/><line x1="386.8" y1="400.0" x2="802.5" y2="640.0"/><line x1="352.2" y1="420.0" x2="767.8" y2="660.0"/><line x1="317.5" y1="440.0" x2="733.2" y2="680.0"/></g><g stroke="#6e2c27" stroke-width="0.8" stroke-linejoin="round"><polygon fill="#a8453f" points="478.6,387.0 508.0,404.0 508.0,352.0 478.6,335.0"/><polygon fill="#86362f" points="537.5,387.0 508.0,404.0 508.0,352.0 537.5,335.0"/><polygon fill="#d38780" points="508.0,318.0 537.5,335.0 508.0,352.0 478.6,335.0"/></g><g stroke="#6e2c27" stroke-width="0.8" stroke-linejoin="round"><polygon fill="#a8453f" points="513.2,355.0 542.7,372.0 542.7,336.0 513.2,319.0"/><polygon fill="#86362f" points="572.1,355.0 542.7,372.0 542.7,336.0 572.1,319.0"/><polygon fill="#d38780" points="542.7,302.0 572.1,319.0 542.7,336.0 513.2,319.0"/></g><g stroke="#6e2c27" stroke-width="0.8" stroke-linejoin="round"><polygon fill="#a8453f" points="547.9,339.0 577.3,356.0 577.3,296.0 547.9,279.0"/><polygon fill="#86362f" points="606.8,339.0 577.3,356.0 577.3,296.0 606.8,279.0"/><polygon fill="#d38780" points="577.3,262.0 606.8,279.0 577.3,296.0 547.9,279.0"/></g><g stroke="#6e2c27" stroke-width="0.8" stroke-linejoin="round"><polygon fill="#a8453f" points="582.5,299.0 612.0,316.0 612.0,288.0 582.5,271.0"/><polygon fill="#86362f" points="641.4,299.0 612.0,316.0 612.0,288.0 641.4,271.0"/><polygon fill="#d38780" points="612.0,254.0 641.4,271.0 612.0,288.0 582.5,271.0"/></g><g stroke="#6e2c27" stroke-width="0.8" stroke-linejoin="round"><polygon fill="#a8453f" points="617.2,291.0 646.6,308.0 646.6,264.0 617.2,247.0"/><polygon fill="#86362f" points="676.0,291.0 646.6,308.0 646.6,264.0 676.0,247.0"/><polygon fill="#d38780" points="646.6,230.0 676.0,247.0 646.6,264.0 617.2,247.0"/></g><g stroke="#9b9488" stroke-width="0.8" stroke-linejoin="round"><polygon fill="#d2ccc0" points="651.8,307.0 681.2,324.0 681.2,284.0 651.8,267.0"/><polygon fill="#b7b0a3" points="710.7,307.0 681.2,324.0 681.2,284.0 710.7,267.0"/><polygon fill="#ebe7de" points="681.2,250.0 710.7,267.0 681.2,284.0 651.8,267.0"/></g><g stroke="#6e2c27" stroke-width="0.8" stroke-linejoin="round"><polygon fill="#a8453f" points="686.4,327.0 715.9,344.0 715.9,320.0 686.4,303.0"/><polygon fill="#86362f" points="745.3,327.0 715.9,344.0 715.9,320.0 745.3,303.0"/><polygon fill="#d38780" points="715.9,286.0 745.3,303.0 715.9,320.0 686.4,303.0"/></g><g stroke="#9b9488" stroke-width="0.8" stroke-linejoin="round"><polygon fill="#d2ccc0" points="721.1,351.0 750.5,368.0 750.5,340.0 721.1,323.0"/><polygon fill="#b7b0a3" points="780.0,351.0 750.5,368.0 750.5,340.0 780.0,323.0"/><polygon fill="#ebe7de" points="750.5,306.0 780.0,323.0 750.5,340.0 721.1,323.0"/></g><g stroke="#6e2c27" stroke-width="0.8" stroke-linejoin="round"><polygon fill="#a8453f" points="755.7,371.0 785.2,388.0 785.2,348.0 755.7,331.0"/><polygon fill="#86362f" points="814.6,371.0 785.2,388.0 785.2,348.0 814.6,331.0"/><polygon fill="#d38780" points="785.2,314.0 814.6,331.0 785.2,348.0 755.7,331.0"/></g><g stroke="#6e2c27" stroke-width="0.8" stroke-linejoin="round"><polygon fill="#a8453f" points="790.4,351.0 819.8,368.0 819.8,340.0 790.4,323.0"/><polygon fill="#86362f" points="849.3,351.0 819.8,368.0 819.8,340.0 849.3,323.0"/><polygon fill="#d38780" points="819.8,306.0 849.3,323.0 819.8,340.0 790.4,323.0"/></g></svg>